<?xml version="1.0" encoding="UTF-8"?>
<svg id="a" xmlns="http://www.w3.org/2000/svg" version="1.1" viewBox="0 0 50 50">
  <defs>
    <style>
      .st0 {
        fill: #2ca01c;
      }

      .st1 {
        fill: #fff;
      }
    </style>
  </defs>
  <path class="st0" d="M25,50c13.8,0,25-11.2,25-25S38.8,0,25,0,0,11.2,0,25s11.2,25,25,25Z"/>
  <path class="st1" d="M16.7,15.3c-5.4,0-9.7,4.4-9.7,9.7s4.3,9.7,9.7,9.7h1.4v-3.6h-1.4c-3.4,0-6.1-2.7-6.1-6.1s2.7-6.1,6.1-6.1h3.3v18.9c0,2,1.6,3.6,3.6,3.6V15.3h-6.9ZM33.3,34.7c5.4,0,9.7-4.4,9.7-9.7s-4.3-9.7-9.7-9.7h-1.4v3.6h1.4c3.4,0,6.1,2.7,6.1,6.1s-2.7,6.1-6.1,6.1h-3.3V12.2c0-2-1.6-3.6-3.6-3.6v26.1h6.9Z"/>
</svg>
