<?xml version="1.0" encoding="UTF-8"?>
<svg id="Livello_1" xmlns="http://www.w3.org/2000/svg" xmlns:xlink="http://www.w3.org/1999/xlink" version="1.1" viewBox="0 0 50 50">
  <defs>
    <style>
      .st0 {
        opacity: .1;
      }

      .st0, .st1 {
        isolation: isolate;
      }

      .st1 {
        opacity: .2;
      }

      .st2 {
        fill: #37c6d0;
      }

      .st3 {
        fill: url(#linear-gradient);
      }

      .st4 {
        fill: #fff;
      }

      .st5 {
        fill: #036c70;
      }

      .st6 {
        fill: #1a9ba1;
      }
    </style>
    <linearGradient id="linear-gradient" x1="4.4" y1="-857.5" x2="21.1" y2="-828.5" gradientTransform="translate(0 868)" gradientUnits="userSpaceOnUse">
      <stop offset="0" stop-color="#058f92"/>
      <stop offset=".5" stop-color="#038489"/>
      <stop offset="1" stop-color="#026d71"/>
    </linearGradient>
  </defs>
  <circle class="st5" cx="25.6" cy="14.5" r="14"/>
  <circle class="st6" cx="37.2" cy="27.3" r="12.8"/>
  <circle class="st2" cx="27.3" cy="39.5" r="9.9"/>
  <path class="st0" d="M27.9,13.2v24.8c0,.9-.5,1.6-1.3,2-.3.1-.5.2-.8.2h-8.3c0-.2,0-.4,0-.6,0-.2,0-.4,0-.6.2-3.7,2.5-7,5.9-8.5v-2.2c-7.6-1.2-12.8-8.3-11.6-15.9,0,0,0-.1,0-.2,0-.4.1-.8.2-1.2h13.7c1.2,0,2.1,1,2.1,2.1Z"/>
  <path class="st1" d="M24.6,12.2h-12.8c-1.3,7.6,3.8,14.8,11.4,16.1.2,0,.5,0,.7.1-3.6,1.7-6.2,6.6-6.5,10.6,0,.2,0,.4,0,.6,0,.2,0,.4,0,.6,0,.4,0,.8.2,1.2h7c.9,0,1.6-.5,2-1.3.1-.3.2-.5.2-.8V14.3c0-1.2-1-2.1-2.1-2.1Z"/>
  <path class="st1" d="M24.6,12.2h-12.8c-1.3,7.6,3.8,14.8,11.4,16.1.2,0,.3,0,.5,0-3.5,1.8-6,6.7-6.2,10.6h7.2c1.2,0,2.1-1,2.1-2.1V14.3c0-1.2-1-2.1-2.1-2.1Z"/>
  <path class="st1" d="M23.5,12.2h-11.6c-1.2,7.2,3.3,14.1,10.3,15.9-2.7,3-4.3,6.9-4.7,10.9h6c1.2,0,2.1-1,2.1-2.1V14.3c0-1.2-1-2.1-2.1-2.1Z"/>
  <path class="st3" d="M2.1,12.2h21.3c1.2,0,2.1,1,2.1,2.1v21.3c0,1.2-1,2.1-2.1,2.1H2.1c-1.2,0-2.1-1-2.1-2.1V14.3c0-1.2,1-2.1,2.1-2.1Z"/>
  <path class="st4" d="M9.5,24.7c-.5-.3-.9-.8-1.2-1.3-.3-.5-.4-1.1-.4-1.8,0-.8.3-1.6.8-2.3.6-.6,1.3-1.1,2.1-1.4.9-.3,1.9-.5,2.9-.4,1.3,0,2.6.1,3.8.5v2.7c-.5-.3-1.1-.6-1.7-.7-.7-.2-1.3-.2-2-.2-.7,0-1.4.1-2.1.4-.5.2-.8.7-.8,1.2,0,.3.1.6.3.9.3.3.6.5.9.7.4.2,1,.4,1.7.8,0,0,.2,0,.2.1.8.3,1.5.7,2.2,1.1.5.3,1,.8,1.3,1.3.3.6.5,1.3.5,2,0,.9-.2,1.7-.7,2.4-.5.6-1.2,1.1-2,1.3-.9.3-1.9.4-2.8.4-.9,0-1.7,0-2.6-.2-.7-.1-1.4-.3-2.1-.6v-2.8c.6.5,1.3.8,2.1,1,.7.2,1.5.4,2.3.4.7,0,1.4-.1,2.1-.4.5-.3.7-.7.7-1.3,0-.4-.1-.7-.4-1-.3-.3-.7-.6-1.1-.8-.5-.2-1.2-.5-2.1-.9-.7-.3-1.4-.6-2.1-1.1Z"/>
</svg>
