<?xml version="1.0" encoding="UTF-8"?>
<svg xmlns="http://www.w3.org/2000/svg" version="1.1" viewBox="0 0 50 50">
  <defs>
    <style>
      .st0 {
        fill: #95bf47;
      }

      .st1 {
        fill: #fff;
      }

      .st2 {
        fill: #5e8e3e;
      }
    </style>
  </defs>
  <path class="st0" d="M41.5,9.7c0-.3-.3-.4-.4-.4s-4-.3-4-.3c0,0-2.7-2.7-3-2.9-.3-.3-.8-.2-1.1-.1,0,0-.6.2-1.5.5-.9-2.6-2.5-5-5.2-5h-.3c-.8-1-1.8-1.5-2.6-1.5-6.4,0-9.5,8.1-10.5,12.2-2.5.8-4.3,1.3-4.5,1.4-1.4.4-1.4.5-1.6,1.8-.1,1-3.8,29.3-3.8,29.3l28.5,5.3,15.5-3.3c0,0-5.4-36.7-5.4-36.9ZM29.9,6.9c-.7.2-1.6.5-2.4.8v-.5c0-1.6-.2-2.9-.6-3.9,1.5.2,2.4,1.8,3,3.7h0ZM25.1,3.5c.4,1,.6,2.4.6,4.3v.3c-1.6.5-3.3,1-5,1.6,1-3.7,2.8-5.5,4.3-6.2h0ZM23.3,1.7c.3,0,.6.1.8.3-2.1,1-4.3,3.4-5.2,8.3-1.4.4-2.7.8-4,1.2,1.1-3.7,3.7-9.8,8.3-9.8Z"/>
  <path class="st2" d="M41.1,9.3c-.2,0-4-.3-4-.3,0,0-2.7-2.7-3-2.9-.1-.1-.3-.2-.4-.2l-2.1,44.1,15.5-3.3s-5.4-36.7-5.4-36.9c-.1-.3-.3-.4-.5-.4Z"/>
  <path class="st1" d="M26.3,17.8l-1.9,5.7s-1.7-.9-3.7-.9c-3,0-3.2,1.9-3.2,2.4,0,2.6,6.7,3.6,6.7,9.6s-3,7.9-7.1,7.9-7.4-3-7.4-3l1.3-4.3s2.6,2.2,4.7,2.2,2-1.1,2-1.9c0-3.4-5.5-3.5-5.5-9.1s3.3-9.2,10.1-9.2c2.5,0,3.8.7,3.8.7Z"/>
</svg>
