<?xml version="1.0" encoding="UTF-8"?>
<svg xmlns="http://www.w3.org/2000/svg" version="1.1" viewBox="0 0 50 50">
  <defs>
    <style>
      .st0 {
        fill: #fff;
      }

      .st1 {
        fill: #f05537;
      }
    </style>
  </defs>
  <path class="st1" d="M36.2,32.4c-1.9,2.8-4.8,4.8-8.2,5.5-5.6,1.3-11.1-1-14.2-5.4l24.5-5.5,4-.9,7.6-1.7c0-1.6-.3-3.3-.6-4.9C46.3,6.3,32.8-1.9,19.4,1.1,5.9,4.2-2.5,17.3.6,30.5c3.1,13.2,16.5,21.4,30,18.4,7.9-1.8,14.1-7.1,17.2-13.9l-11.6-2.6h0Z"/>
  <path class="st0" d="M22,12.1c5.3-1.2,10.9.9,14.1,5.3l-24.4,5.5c.8-5.2,4.8-9.6,10.3-10.8Z"/>
</svg>
