<?xml version="1.0" encoding="UTF-8"?>
<svg xmlns="http://www.w3.org/2000/svg" version="1.1" viewBox="0 0 50 50">
  <defs>
    <style>
      .st0 {
        fill: #03d47c;
      }
    </style>
  </defs>
  <polygon class="st0" points="34 17.6 34 12.4 16.2 12.4 16.2 37.6 34 37.6 34 32.4 22.8 32.4 22.8 27.6 31.8 27.6 31.8 22.2 22.8 22.2 22.8 17.6 34 17.6"/>
  <path class="st0" d="M39.7,4.7C35.7,1.8,30.6,0,25.1,0,11.3,0,0,11.3,0,25s1.7,10.5,4.7,14.6c.7,1,2.1,1,2.9.2s.8-1.9.2-2.8c-2.3-3.5-3.8-7.6-3.8-12,0-11.6,9.5-21,21.1-21s8.6,1.4,12,3.8c.9.6,2,.6,2.8-.2.9-.9.8-2.2-.2-2.9Z"/>
  <path class="st0" d="M45.7,10.9c-.7-1-2.1-1.1-3-.2-.8.8-.8,1.9-.2,2.8,2.2,3.3,3.5,7.3,3.5,11.6s-1.4,8.4-3.7,11.8c-.6.9-.6,2,.2,2.8.9.9,2.2.8,2.9-.2,2.9-4,4.5-9,4.5-14.3.3-5.4-1.4-10.2-4.2-14.2Z"/>
  <path class="st0" d="M36.8,42.4c-3.3,2.2-7.4,3.6-11.7,3.6s-8.3-1.3-11.6-3.5c-.9-.6-2-.5-2.8.2-.9.9-.8,2.3.2,3,4,2.7,9,4.3,14.2,4.3s10.3-1.7,14.4-4.5c1-.7,1.1-2.1.2-2.9-.8-.8-1.9-.8-2.8-.2Z"/>
</svg>
