<?xml version="1.0" encoding="UTF-8"?>
<svg xmlns="http://www.w3.org/2000/svg" version="1.1" viewBox="0 0 50 50">
  <defs>
    <style>
      .st0 {
        fill: #73c41d;
        fill-rule: evenodd;
      }
    </style>
  </defs>
  <path class="st0" d="M29.2,35.3c-3.2,0-6-2.5-6-6s2.3-6.2,6-6.2,5.9,3,5.9,6.2-2.3,6-6,6ZM19.7,24l-1.1-3.7c-.7-2-.9-3.1-2.8-5.1-.7-.7-3.1-2.2-2.8-1.9,3.2,3.4,4.8,7.5,5.4,8.7-.6-.7-1.2-1.3-2-2.1-.7-.7-1.3-1.3-2-1.7-.4-.3-.7-.4-1.1-.6-1.9-1-3.8-1.6-4.5-1.8-.9-.2-1.8-.3-1.8-.3,0,0,2.8,2.4,4,3.9,1.2,1.5,2.4,2.9,3.8,3.4,1.4.6,1.8.7,2.9.9.9.1,2,.4,2,.4ZM29.5,20.6c-3,0-4.6,1-5.7,2.1l-.3.3v-10h-2.6v16.3c0,5,3.9,8.2,8.3,8.2s8.6-3.8,8.6-8.6-3.9-8.4-8.3-8.4ZM50,25c0,13.8-11.2,25-25,25S0,38.8,0,25,11.2,0,25,0s25,11.2,25,25Z"/>
</svg>
