<?xml version="1.0" encoding="UTF-8"?>
<svg xmlns="http://www.w3.org/2000/svg" version="1.1" viewBox="0 0 50 50">
  <defs>
    <style>
      .st0 {
        fill: #f06a6a;
        fill-rule: evenodd;
      }
    </style>
  </defs>
  <path class="st0" d="M39.1,26.4c-6,0-10.9,4.9-10.9,10.9s4.9,10.9,10.9,10.9,10.9-4.9,10.9-10.9-4.9-10.9-10.9-10.9h0ZM10.9,26.4c-6,0-10.9,4.9-10.9,10.9s4.9,10.9,10.9,10.9,10.9-4.9,10.9-10.9-4.9-10.9-10.9-10.9h0ZM35.9,12.8c0,6-4.9,10.9-10.9,10.9s-10.9-4.9-10.9-10.9S19,1.9,25,1.9s10.9,4.9,10.9,10.9h0Z"/>
</svg>
