<?xml version="1.0" encoding="UTF-8"?>
<svg xmlns="http://www.w3.org/2000/svg" version="1.1" viewBox="0 0 50 50">
  <defs>
    <style>
      .st0 {
        fill: #4c00ff;
      }

      .st1 {
        fill: #ff5252;
      }
    </style>
  </defs>
  <path class="st0" d="M36,36v12.8c0,.7-.5,1.2-1.2,1.2H1.2c-.7,0-1.2-.5-1.2-1.2V15.2c0-.7.5-1.2,1.2-1.2h12.8v20.8c0,.7.5,1.2,1.2,1.2h20.8Z"/>
  <path class="st1" d="M50,18c0,10.7-6.3,18-14,18v-13.5c0-.4-.2-.8-.4-1l-7-7c-.3-.3-.6-.4-1-.4h-13.5V1.2C14,.5,14.5,0,15.2,0h18.9c9,0,15.9,7.2,15.9,18Z"/>
  <path d="M35.6,21.4c.3.3.4.6.4,1v13.5H15.2c-.7,0-1.2-.5-1.2-1.2V14h13.5c.4,0,.8.2,1,.4l7,7Z"/>
</svg>
