<?xml version="1.0" encoding="UTF-8"?>
<svg xmlns="http://www.w3.org/2000/svg" version="1.1" viewBox="0 0 50 50">
  <defs>
    <style>
      .st0 {
        fill: #ff4c46;
      }

      .st1 {
        fill: #fff;
      }
    </style>
  </defs>
  <path class="st1" d="M49.8,7.3c-.2-.2-.5-.1-.7-.1l-15.8,1.3c-3.2-1.9-7.1-2.7-10.9-2.1L5.5,0c-.4,0-.7.5-.5.9l10.4,8.2c-2.6,1.8-5.2,3.8-7.1,6.4-3,4.2-5.7,10.9-7.5,15.8s-1.4,4.6.2,7,5.1,5.4,7.6,7c11,6.9,29.7,6.5,38.2-4.4s2.3-7.7.6-12.5-4-9.8-7.3-13.9-.6-.6-.6-.7l10-5.8c.3-.2.3-.6,0-.8Z"/>
  <path class="st0" d="M49.8,7.3c.2.2.2.6,0,.8l-10,5.8c0,.1.4.6.6.7,3.3,4.1,5.6,9,7.3,13.9s2.8,8.1-.6,12.5c-8.5,10.8-27.2,11.3-38.2,4.4s-6-4.5-7.6-7-1.2-4.5-.2-7c1.8-4.9,4.5-11.6,7.5-15.8s4.4-4.7,7.1-6.4L5,.9c-.2-.4,0-.9.5-.9l16.9,6.4c3.7-.6,7.6.2,10.9,2.1l15.8-1.3c.2,0,.5,0,.7.1ZM17.5,14.2c-4.3.3-7.6,4.4-9.3,8.1s-.6,11.8,5.1,13.8,9.5-1.6,12.5-5.6,1.3-1.9,1.9-2.7c1-1.2,1.7.3,2.3,1.1,2.6,3.2,6.7,7.9,11.4,6s3.7-5.6,3-8.7-3.1-7.7-6.2-9.1-6.4,0-9,1.8c-3.4-2.4-7.5-5-11.8-4.6ZM28.5,29.6c-.2,0-.4.2-.5.4-1,1-1.8,2.3-2.8,3.3-.5.6.1.8.6,1.1,2,1.3,3.9,1.6,6.2.7s1.4-.4.8-1.2c-.9-1.2-2.2-2.6-3.2-3.7s-.5-.6-1-.5ZM25.2,35.7h0c0,.1,2.3,2.6,2.3,2.6.5.4.9.9,1.4,1.3s.5.4.9.2l3.1-3.4v-.2c-2.2.8-4.5.7-6.5-.1s-.9-.5-1-.5Z"/>
  <path class="st1" d="M17.5,14.2c4.4-.3,8.4,2.2,11.8,4.6,2.6-1.8,5.9-3.2,9-1.8s5.6,5.9,6.2,9.1.4,7.3-3,8.7-8.8-2.8-11.4-6-1.3-2.3-2.3-1.1-1.3,1.9-1.9,2.7c-3.1,4-7.2,7.5-12.5,5.6s-7.4-8.6-5.1-13.8,4.9-7.8,9.3-8.1ZM20.1,21.8c-3.3.4-3.4,5.5,0,5.8s4.3-6.4,0-5.8ZM35.4,22.3c-3.3.4-3.4,5.6,0,5.9s4.3-6.5,0-5.9Z"/>
  <path class="st1" d="M28.5,29.6c.5-.1.7.2,1,.5,1,1.1,2.3,2.5,3.2,3.7s0,1-.8,1.2c-2.3.9-4.2.7-6.2-.7s-1-.5-.6-1.1c1-1,1.8-2.3,2.8-3.3s.3-.3.5-.4Z"/>
  <path class="st1" d="M25.2,35.7c.1,0,.8.4,1,.5,2,.8,4.4.9,6.4.1v.2c.1,0-3,3.4-3,3.4-.4.2-.6,0-.9-.2-.5-.4-.9-.9-1.4-1.3l-2.3-2.5h0Z"/>
  <path class="st0" d="M35.4,22.3c4.4-.5,4.5,6.3,0,5.9s-3.4-5.5,0-5.9Z"/>
  <path class="st0" d="M20.1,21.8c4.3-.5,4.4,6.2,0,5.8s-3.4-5.4,0-5.8Z"/>
</svg>
