<?xml version="1.0" encoding="UTF-8"?>
<svg xmlns="http://www.w3.org/2000/svg" version="1.1" viewBox="0 0 50 50">
  <defs>
    <style>
      .st0 {
        fill: #fa5d00;
        fill-rule: evenodd;
      }
    </style>
  </defs>
  <path class="st0" d="M21.6,31.3v18.7h-3.1v-28.1c0-1.7,1.4-3.1,3.1-3.1h9.2v9.3c0,1.7-1.3,3.2-3,3.2h-6.2,0Z"/>
  <path class="st0" d="M49.3,0v46.8c0,1.7-1.4,3.2-3.1,3.2h-3V3.1C43.1,1.4,44.4,0,46.2,0h3.1,0Z"/>
  <path class="st0" d="M37,0h3v46.8c0,1.7-1.4,3.2-3,3.2h-3.1V15.6c0-1.7,1.4-3.1,3.1-3.1V0Z"/>
  <path class="st0" d="M12.3,50h-3V3.1C9.3,1.4,10.6,0,12.3,0h3.1v34.3c0,1.7-1.4,3.2-3.1,3.2,0,0,0,12.5,0,12.5Z"/>
  <path class="st0" d="M0,50V3.1C0,1.4,1.4,0,3.1,0h3v46.8c0,1.7-1.3,3.2-3,3.2H0Z"/>
</svg>
